<svg width="49" height="51" viewBox="0 0 49 51" fill="none" xmlns="http://www.w3.org/2000/svg">
<path fill-rule="evenodd" clip-rule="evenodd" d="M23.2935 7.96875H26.5066V39.8438H23.2935V7.96875H23.2935Z" fill="white"/>
<path fill-rule="evenodd" clip-rule="evenodd" d="M26.5067 51H23.2936C23.2936 48.3639 21.1311 46.2188 18.4739 46.2188H0.801758V43.0312H18.4739C22.9032 43.0312 26.5067 46.606 26.5067 51Z" fill="white"/>
<path fill-rule="evenodd" clip-rule="evenodd" d="M26.5066 51H23.2935C23.2935 46.606 26.897 43.0312 31.3262 43.0312H48.9984V46.2188H31.3262C28.669 46.2188 26.5066 48.3639 26.5066 51Z" fill="white"/>
<path fill-rule="evenodd" clip-rule="evenodd" d="M20.127 39.8438H0.801758V0H18.4739C22.9032 0 26.5067 3.57478 26.5067 7.96875H23.2936C23.2936 5.33269 21.1311 3.1875 18.4739 3.1875H4.01487V36.6562H20.127V39.8438Z" fill="white"/>
<path fill-rule="evenodd" clip-rule="evenodd" d="M48.9984 39.8438H29.6763V36.6562H45.7853V3.1875H31.3262C28.669 3.1875 26.5066 5.33269 26.5066 7.96875H23.2935C23.2935 3.57478 26.897 0 31.3262 0H48.9984V39.8438Z" fill="white"/>
</svg>
