<svg width="33" height="37" viewBox="0 0 33 37" fill="none" xmlns="http://www.w3.org/2000/svg">
<path fill-rule="evenodd" clip-rule="evenodd" d="M14.4282 2.12225C15.6534 1.42631 17.1544 1.4263 18.3796 2.12225L29.7834 8.6001C31.0347 9.31088 31.8078 10.6391 31.8078 12.0781V24.9219C31.8078 26.3609 31.0348 27.6891 29.7834 28.3999L18.3796 34.8777C17.1544 35.5737 15.6534 35.5737 14.4282 34.8777L3.02434 28.3999C1.77304 27.6891 1 26.3609 1 24.9219L1 12.0781C1 10.6391 1.77304 9.31088 3.02434 8.6001L14.4282 2.12225Z" stroke="#66E0E5" stroke-width="2"/>
<path d="M21.1011 23.6191C20.3919 24.3797 19.588 24.9974 18.6895 25.4722C17.8 25.9372 16.9781 26.1734 16.2237 26.1809L15.7855 24.9793C16.5016 24.9543 17.2631 24.7437 18.07 24.3476C18.8672 23.9424 19.5704 23.4131 20.1796 22.7598C21.0344 21.8432 21.5097 21.0011 21.6055 20.2336C21.6916 19.457 21.4665 18.8187 20.9302 18.3186C20.5206 17.9366 20.0757 17.7588 19.5955 17.785C19.1244 17.8014 18.6572 17.931 18.194 18.1735C17.721 18.407 17.1065 18.7728 16.3503 19.2709C15.4369 19.8594 14.6787 20.301 14.0758 20.5956C13.4632 20.8812 12.817 21.0169 12.1372 21.0029C11.4666 20.9792 10.8144 20.6718 10.1805 20.0807C9.66371 19.5988 9.32295 19.0258 9.15826 18.3617C8.98381 17.6886 9.03352 16.951 9.3074 16.149C9.58128 15.347 10.1092 14.5267 10.8913 13.6881C11.4368 13.103 12.0517 12.6098 12.7358 12.2086C13.4192 11.7885 14.0933 11.5055 14.758 11.3597L15.28 12.5301C14.5971 12.6955 13.9601 12.9583 13.3689 13.3185C12.7679 13.6697 12.2492 14.0793 11.8128 14.5474C10.9762 15.4445 10.5197 16.2859 10.4434 17.0716C10.3664 17.8384 10.6009 18.4764 11.147 18.9857C11.5566 19.3676 12.0018 19.5549 12.4826 19.5475C12.9629 19.5213 13.444 19.3866 13.9261 19.1433C14.4075 18.8812 15.0217 18.506 15.7688 18.0177C16.6543 17.4396 17.4033 17.0078 18.016 16.7222C18.628 16.4178 19.2693 16.2775 19.9399 16.3013C20.6008 16.3159 21.2433 16.6142 21.8674 17.1962C22.3842 17.6782 22.7253 18.2606 22.8907 18.9435C23.0554 19.6075 22.9962 20.3454 22.7132 21.1572C22.4205 21.9599 21.8832 22.7805 21.1011 23.6191Z" fill="#66E0E5"/>
</svg>
