<svg width="56" height="57" viewBox="0 0 56 57" fill="none" xmlns="http://www.w3.org/2000/svg">
<path fill-rule="evenodd" clip-rule="evenodd" d="M17.7232 37.5874L20.2035 40.2166L3.94901 55.6012L1.46875 52.972L17.7232 37.5874Z" fill="white"/>
<path fill-rule="evenodd" clip-rule="evenodd" d="M22.5808 42.5275C18.5958 42.5275 15.355 39.2812 15.355 35.2894C15.355 31.2976 18.5958 28.0513 22.5808 28.0513C26.5658 28.0513 29.8066 31.2976 29.8066 35.2894C29.8066 39.2812 26.5658 42.5275 22.5808 42.5275ZM22.5808 31.6703C20.5883 31.6703 18.9679 33.2935 18.9679 35.2894C18.9679 37.2853 20.5883 38.9084 22.5808 38.9084C24.5733 38.9084 26.1937 37.2853 26.1937 35.2894C26.1937 33.2935 24.5733 31.6703 22.5808 31.6703Z" fill="white"/>
<path fill-rule="evenodd" clip-rule="evenodd" d="M40.6471 29.8589C36.7867 29.8589 33.1576 28.3516 30.428 25.6174C27.6967 22.8832 26.1937 19.2479 26.1919 15.3827C26.1919 11.5158 27.6967 7.88043 30.428 5.14443L35.3632 0.150146L55.8466 20.6394L50.8644 25.6192C48.1349 28.3516 44.5075 29.8589 40.6471 29.8589ZM35.3777 5.27834L32.9878 7.69586C30.932 9.75691 29.8048 12.4839 29.8048 15.3827C29.8048 18.2834 30.9338 21.0067 32.9823 23.0587C35.0291 25.1089 37.7514 26.2399 40.6471 26.2399C43.5429 26.2399 46.2634 25.1089 48.3119 23.0587L50.7325 20.6394L35.3777 5.27834Z" fill="white"/>
<path fill-rule="evenodd" clip-rule="evenodd" d="M0.637695 56.5097L4.63357 21.49L21.7027 11.99L23.4586 15.153L8.01163 23.7483L4.7817 52.0619L35.6991 46.3583L40.759 32.8393L44.1443 34.1132L38.3654 49.5467L0.637695 56.5097Z" fill="white"/>
</svg>
